<?xml version="1.0" encoding="UTF-8"?>
<svg version="1.1" viewBox="0 0 1626 2048" width="1280" height="1280" xmlns="http://www.w3.org/2000/svg">
<path transform="translate(0)" d="m0 0h1626v2048h-1626z" fill="#070606"/>
<path transform="translate(0)" d="m0 0h920v1l-15 4-36 16-37 15-38 14-36 12-29 9-39 11-14 8-10 8-12 11-11 14-10 15-9 16-9 19-9 24-6 22-4 21-3 30v55l3 38 5 38 9 49 10 43 5 18v6l-11 6-13 11-10 12-11 18-9 21-5 17-4 23-1 9v31l3 14 5 13 9 14 9 10 10 9 16 10 17 8 10 4 9 27 10 21 12 19 11 14 9 10 7 8 18 18 11 9 12 10 8 18 12 18-1 9-6 19-9 25-1 1-28 4-21 6-16 6-16 8-15 8-19 12-17 12-18 13-13 10-16 12-18 14-16 13-16 15-11 12-12 16-8 14-5 14-3 11-8-1h-16l-17 3-21 7-24 12-15 10-12 9-11 9-13 12-7 7-9 11-9 12-9 16-13 28-32 68-14 30-17 36-13 28-13 27-13 28-18 38-11 18-11 16-14 18-11 13-9 11-24 28-11 14-10 12-12 16-11 16-9 14-13 23-11 23-8 22-3 15v16l3 12 6 12 7 8 12 9 16 8 19 7 28 7 21 4 39 5 54 5 70 5 71 4 75 3 144 4 44 1 135 2 108 1 12 7 11 7 22 12 25 12 24 9 26 8 22 5 26 4 42 3 12 12 14 11 13 9 17 7 23 6v1h-1143z" fill="#FCFCFC"/>
<path transform="translate(929)" d="m0 0h697v699l-2-1-7-16-9-12-7-7-14-9v-23l-2-12-5-13-7-11-11-11-14-8-15-6-11-3h-21l-12 4-13 9-9 9-9 13-11 23-3 7-27 4-19 5-25 10-21 11-19 12-19 14-11 9-14 12-8 8-8 7-16 17-1 1h-24l-21 3-12 5-3 2h-10l-11-4-5-3 1-16 2-22 1-21v-21l-2-29-4-28-6-26-8-23-8-16-7-12-1-1 1-19-2-16-4-14-7-16-7-12-12-16-11-12-13-13-11-9-16-12-6-4 2-5 11-13 13-12 11-9 15-12 20-15 19-14 17-12 20-14 34-23 33-22 21-12 16-7 11-3 8-1 9 2 13 8 27 15 28 15 44 22 32 14 24 9 21 5h12l19-7 11-7 7-7 5-10 2-9v-9l-3-14-8-16-14-20-9-11-11-13-10-11-8-7-11-10-17-13-15-10-21-12-17-8-24-9-24-6-17-3-11-1h-32l-14 3-23 8-24 11-25 13-19 12-17 12-18 14-14 12-15 14-7 6-7 8-9 9-7 8-13 15-8 10-16 21-22 33-13 21-14 25-15 30-19 1-16 3-16 8-10 8-9 14-4 12-4-2-9-7-14-7-11-3-7-1h-24l-18 3-15 5-15 8-13 11-9 10-1 2h-2l-2 5-12 23-6 18-2 7-32 13-9-2-17-5-12-2-2-5-7-46-4-33-4-51-1-23v-37l2-35 4-32 5-21 6-14 8-11 8-6 8-3 35-6 32-8 30-10 23-10 21-11 24-16 11-9 15-14 9-10 11-16 10-19 4-13 1-7v-8l-2-11-4-6-6-4z" fill="#FCFCFC"/>
<path transform="translate(1625,744)" d="m0 0h1v1304h-452l4-2 15-5 9-5 9-7 3-1 15 7 13 4 12 2h17l16-4 16-8 11-8 7-8 21-1 16-4 16-8 13-10 10-12 8-13 7-15 3-16v-8l-3-16-7-16-9-14-8-10-21-21 6-10 4-12 1-6v-15l-3-14-7-17-8-16-8-15-11-16-11-14-11-12-9-10-10-10-8-7-15-13-34-26-32-21-25-15-21-12-29-15-26-13-30-13-12-5-10-7-5-6-8-29-12-35-11-25-11-22-12-20-12-17-9-11-9-10-6-6v-7l1-1 15-2 5 5 7 8 7 7 15 10 17 8 21 7 22 5 7 2 5 23 8 24 11 25 12 21 12 16 16 16 14 8 17 5 13 2h21l18-4 12-5 13-9 7-6 11-14 9-16 6-15 5-18 3-22 2-26v-52l-3-31-4-24-6-27-9-29-10-25-11-22 3-38v-50l-3-30-5-27-5-18-5-13v-3l35-6 27-6 25-7 26-9 27-12 21-11 19-12 17-13 12-11 16-16 8-10 32-16 27-16 19-13 13-10 15-13 12-12 10-13 8-14 13-30z" fill="#FCFCFC"/>
<path transform="translate(446,1185)" d="m0 0h15v27l2 36 4 30 6 30 7 26 10 28 11 24 9 17 16 24 10 13 12 13 14 14 14 11 14 10 21 12 21 10 22 8 23 6 18 3 20 1 17-2 12-3 13-7 12-9 26-16 19-12 21-13 4-1 3 45-25 8-43 15-26 10-21 9-16 8-12 7-13 11-14 8-39 19-17 11-11 9-10 9-13 13-7 8-3 2-93 15-28 4-12-1-18-4-9-4-4-3v-10l4-22 8-24 8-17 10-17 14-20 11-13 9-10 9-9 6-9 1-3-16 2-11 4-9 7-9 8-9 11-8 10-11 17-12 22-10 22-10 28-7 25-4 14-68 4-43 4-16 2 24 5 35 5 32 3 21 1h30l28-2 37-6 39-6 31-3h6l-1 4-9 12-11 18-7 15-5 15-2 11v15l4 15 7 12 9 9 11 7 11 4h6l8 13 4 5 12 9 15 7 15 4 12 2 12 1h13l36-3 9 12 12 9 15 6 10 2h20l30-4 20-5 15-6 16-9 13-12 6-7 31-8 36-11 37-13 28-12 23-11 19-11 16-11 10-8 18-18 23-2 16-3 5-1 22 12 29 15 54 28 37 18 30 13 29 10 20 9 21 11 16 11 11 9 10 10 7 10 4 10 1 4v11l-5 15-8 16-10 14-9 10-8 8-7 5-2-1 5-21 1-7v-24l-4-16-6-12-10-11-11-7-16-6-8-1 15 15 9 14 5 13 2 11v12l-4 16-8 16-10 13-9 10-9 7-11 5-11 3h-19l-17-4-3-1 2-10 3-14 1-19-2-15-6-17-8-12-10-10-13-8-13-6-18-5-18-3-26-2h-7l20 5 21 8 15 8 11 8 10 9 9 11 8 16 3 13 1 8v9l-2 12-4 9-4 6-8 7-10 4-4 1h-26l-21-5-21-8-23-12-17-12-13-11-2-4h-2v12l-9-1-55-12-36-9-27-9-25-11-28-13-31-14-12-4 1 9-1 1h-34l-148-4-86-3-49-3-350-27-38-3-23-3-21-5-15-6-12-7-11-11-5-10-2-7v-14l4-16 8-19 10-17 13-19 16-21 10-13 22-28 16-21 13-19 7-10 15-24 13-24 13-27 7-16 22-44 13-28 40-80 12-22 13-24 17-28 12-20 13-19 10-14 10-13 9-11 18-20 13-12 13-10 16-9 14-5z" fill="#FBB51D"/>
<path transform="translate(983,399)" d="m0 0h11l22 4 21 7 16 8 11 7 10 8 10 9 9 11 7 10 9 17 2 5v5l-10-3-11-8-8-8-15-11-17-9-17-5-11-1-11 2-10 5-6 7-5 13-3 13-1 8-1 22-7-6-10-10-17-13-15-9-15-6-13-3h-20l-12 3-16 8-12 11-7 11-5 12-4 14-3 19-1 13v24l2 27 5 34 7 34 10 36 11 33 12 29 8 17 8 14v2l-18-2h-27l-12 3h-3v2l10 2 32 10 29 11 26 12 16 9 17 12 12 11 3 5-1 11h7l12-18 10-13 13-15 21-21 11-9 16-12 21-13 23-11 24-8 9-1v8l-14 8-9 7-10 9-10 11-9 13-11 21-8 22-1 5 9-11 11-13 14-15 18-18 8-7 16-13 19-13 17-10 19-9 19-6h2l-2 5-12 19-12 21-11 22-11 28-5 15-5 21-3 17v8l3-4 11-24 10-20 13-23 15-24 11-16 14-19 9-11 11-13 9-10 12-13 8-7 10-10 11-9 15-12 24-16 25-14 23-10 21-7 15-4 1 2-7 19-7 26-3 21v20l3 14 6 12 5 6 12 7 11 3h19l15-4 16-8 11-7 11-9 14-14 13-17 10-17 8-17 5-12 5 1 9 6 6 8 3 8 1 4v17l-4 17-6 16-8 16-10 19-12 18-9 11-9 10-7 8-16 15-11 9-13 10-6 4-2-1 4-13 4-22v-16l-8 16-9 16-8 12-14 18-12 13-6 7-8 7-11 10-12 9-21 14-23 13-27 12-36 12-26 6-29 5-26 3h-24l-35-2-40-4-33-5-29-6-27-7-36-12-24-10-22-11-23-14-19-14-14-11-14-12-8-8-3-7 2-3h7l15 8 5 1-2-5-7-8-9-8-10-6-13-5-9-2h-16l-15 4-7 4-1 6 5 1 19 1 7 6 8 13 12 13 9 9 13 18 9 17 13 34 14 41 10 34 10 40 7 35 8 49 7 28 7 22 9 24 11 24 12 21 10 14 11 13 11 11 14 10 8 7 6 8 4 11v11l-3 8-7-1-16-7-16-9-17-12-14-12-15-15-9-11-12-17-9-15-11-22-10-26-6-20v-5l-9 1 8 38 7 26 9 25 9 19 9 12 7 6v2l-24-1-20-3-20-5-20-7-19-10-14-10-12-11-8-8-11-15-11-21-9-24-6-29-2-22v-17l2-21 4-24 6-22 7-20 3-9-1-8-5-5-4-1-8 14-9 21-7 23-5 25-1 8v39l3 19 6 21 6 16 11 21 9 13 10 14 5 24 7 40v7l-10-1-21-7-21-10-11-7-12-9-14-12-7-7-9-11-9-12-9-15-8-16-6-14-6-18-5-27-4-29v-33l4-18 6-15 8-12 8-9 8-7 7-8 13-15 13-18 13-21 12-23 9-23 5-12 10 5 13 12 11 12 12 16 10 16 11 21 6 16 3 11 2-7v-20l-4-20-8-21-9-16-12-17-12-14-7-6-12-8-10-9-10-10-11-16-8-15-7-21-2-12v-10h-2l-4 17 1 15-5-1-4-5-4-8-11-13-11-15-10-15-10-17-14-27-11-28-7-24-6-28h-3l-1 3-1 16v32l-9 1-13-8-12-11-9-10-8-13-5-14-3-14v-22l4-23 8-26 9-19 8-12 9-10 8-7 5-2 5 11 15 39 18 44 15 35 11 24 8 16 6 11 7 9h12l8-5 3-6 1-10-4-15-11-33-11-40-7-29-5-26-3-22v-20l4-2h8l5 3 2 2 1 7 21-11 12-4 11-1 3 30 4 17 5 12 6 10 8 6-2-9-3-37v-18l2-22 4-21 7-19 6-10 7-9 15-11 15-8 18-6 7-1h9l14 2 21 7 30 14 10 5-6-15 1-7 6-10 8-8 10-6 11-4z" fill="#FBB51D"/>
<path transform="translate(896,1517)" d="m0 0h10l70 8 30 5 21 7 21 11 16 8 17 8 20 7 27 14 28 17 15 9 21 14 19 13 19 14 18 14 13 11 10 9 8 7 12 11 7 7 7 8 9 10 10 13 11 17 8 16 6 18 2 13v10l-2 12-2 6-4-1-28-13-27-13-28-13-31-15-28-13-31-15-20-9-16-8-27-13-11-4-13-1-2-33h-2l-2 5-13 16-15 15-17 13-21 13-41 21-26 13-28 13-32 14-28 11-24 8-7 3-18 13-21 12-19 8-16 4-7 1h-17l-13-3-16-8-10-9-6-8-4-12v-15l5-16 6-11 8-10 9-10 11-11 17-13 15-9h-21l-15 4-16 8-12 9-10 9-12 16-8 17-4 17-1 5v22l-6 2-7 1h-25l-16-4-12-6-9-8-7-13-1-4v-18l5-16 9-16 12-16 11-12 7-8 13-12 4-4-27 8-17 8-13 9-8 7-9 12-6 12-4 14-2 20-5-1-10-6-6-8-3-7-1-5v-13l3-12 7-14 11-14 20-20 11-9 15-13 11-9 10-9 8-7 9-9 17-12 21-13 25-14 35-18 29-14 25-11 32-13 28-10 25-8 26-6z" fill="#FBB51D"/>
<path transform="translate(983,1101)" d="m0 0h17l17 3 19 7 14 8 13 10 17 17 9 11 11 13 13 18 11 17 11 19 11 23 3 8 1-4v-9l-2-16-5-17-8-16-10-17-13-19-10-12-10-7-4-6v-7l4-7 9-5 5-1h11l20 4 18 6 14 7 11 8 13 11 9 10 13 18 12 21 11 22 11 27 12 36 6 22 6 31 3 26 1 16v19l-3 31-6 27-7 19-9 17-9 12-7 7-11 7-14 5-5 1h-12l-13-3-16-8-10-8-17-17-13-17-8-16-8-19-10-30-15-49-14-41-11-25-8-14-9-12-10-9-7-4 15 28 12 25 1 9-2 3-5-1-9-7-7-7-13-17-9-15-9-19-13-35-16-41-10-30-3-15v-11l3-6 7-6 9-3z" fill="#F6A3A3"/>
<path transform="translate(617,1038)" d="m0 0h2l-4 17-6 23-6 31-3 22-1 11v16l4 31 6 29 7 25 10 27 14 29 11 18 10 14 9 11 12 13 12 12 17 13 15 10 22 12 15 7 14 4 19 3h26l18-2 8-1v7l-5 10-3 4h-2l-2 4-12 11-11 9-16 13-12 9-18 13-24 16-18 11-6 2h-14l-18-3-20-6-16-7-20-10-19-12-17-13-13-11-15-14-10-11-10-13-16-25-11-19-9-17-10-25-7-23-9-36-7-34-2-16v-25l3-18 6-18 9-17 10-13 18-20 14-15 14-13 11-9 18-14 18-13z" fill="#37B258"/>
<path transform="translate(896,488)" d="m0 0h15l14 3 17 8 14 10 14 13 7 8 12 16 12 21 8 16 11 27 10 31 9 37 7 37 5 38 3 35-1 5-11 7-13 12-12 15-10 15-12 21-3 3-9-10-14-7-5-2 2-11v-29l-5-25-8-24-9-20-11-19-12-17-7-8-10-7-10-4-6 1-5 4-2 5-6 1-2-2-2-13-5-19-6-23-4-27-2-34v-37l3-15 5-12 6-9 7-7 12-6z" fill="#FCFBFA"/>
<path transform="translate(704,990)" d="m0 0h14l-4 10-7 13-12 17-11 12-15 15-7 19-6 22-4 25-1 9v35l4 28 6 22 10 25 10 19 8 12 9 12 8 10 11 12 15 15 14 11 10 7 18 10 15 6 19 5 8 1h22l14-3 10-5 17-12 8-7 9 1 6 4 3 3 1 3v7l-4 12-7 13-10 11-10 7-12 6-15 4-6 1-31 1-20-3-27-9-16-8-14-8-17-12-13-11-13-12-7-7-9-11-12-15-12-19-13-25-8-21-5-15-6-27-4-33v-37l3-28 4-23 6-26 8-24 12-13 10-9 13-9 15-8 13-4z" fill="#37B258"/>
<path transform="translate(1032,459)" d="m0 0 11 1 10 4 13 10 12 12 11 14 9 13 11 18 10 18 11 22 7 19 6 23 5 26 4 36 1 18v40l-1 14-2 2-26 8-11 5h-2v-26l-2-30-4-26-5-18-6-14-8-11-8-7-10-4-9-1-6 4-4 8-3 8h-2l-5-12-12-25-9-19-7-21-6-25-3-22v-20l3-16 4-9 6-8 7-6 4-2z" fill="#FCFBF9"/>
<path transform="translate(925,1347)" d="m0 0h16l7 7 9 12 18 27 12 21 15 30 14 34 13 39v4l-10-3-25-7-29-6-26-3h-36l-26 4-11 2-4-32-5-22-1-6 9-7 7-8 12-13 12-16 12-19 11-23 4-13z" fill="#FBB51D"/>
<path transform="translate(1170,1009)" d="m0 0h44l2 7 6 52 3 39v44l-4-2-16-16-8-7-13-12-1-1-2-38-3-30-4-22z" fill="#FBB51D"/>
<path transform="translate(823,1301)" d="m0 0 7 4 12 10 16 10 16 7-2 4-4 5-10 6-13 5-13 2-2-9-7-41z" fill="#37B258"/>
</svg>
